    Stream #0.1: Audio: mp3, 48000 Hz, stereo, s16, 32 kb/s
    Stream #0.1: Audio: mp3, 44100 Hz, stereo, s16, 128 kb/s
    Stream #0.0: Audio: wmav2, 44100 Hz, stereo, s16, 64 kb/s
    Stream #0.1: Audio: mp3, 22050 Hz, stereo, s16, 32 kb/s
    Stream #0.1: Audio: mp3, 22050 Hz, stereo, s16, 32 kb/s
    Stream #0.1: Audio: mp3, 22050 Hz, stereo, s16, 32 kb/s
    Stream #0.1: Audio: mp3, 22050 Hz, stereo, s16, 32 kb/s
    Stream #0.1: Audio: mp3, 22050 Hz, stereo, s16, 32 kb/s
    Stream #0.1: Audio: mp3, 22050 Hz, stereo, s16, 32 kb/s
    Stream #0.1: Audio: mp3, 22050 Hz, stereo, s16, 32 kb/s
    Stream #0.1: Audio: mp3, 22050 Hz, stereo, s16, 32 kb/s
    Stream #0.1: Audio: mp3, 22050 Hz, stereo, s16, 32 kb/s
    Stream #0.1: Audio: mp3, 22050 Hz, stereo, s16, 32 kb/s
    Stream #0.1[0x1c0]: Audio: mp2, 44100 Hz, stereo, s16, 224 kb/s
    Stream #0.1: Audio: mp3, 22050 Hz, stereo, s16, 64 kb/s
    Stream #0.1: Audio: mp3, 48000 Hz, stereo, s16, 160 kb/s
    Stream #0.1: Audio: mp3, 22050 Hz, stereo, s16, 64 kb/s
    Stream #0.1: Audio: mp3, 22050 Hz, stereo, s16, 32 kb/s
    Stream #0.1: Audio: mp3, 48000 Hz, stereo, s16, 192 kb/s
    Stream #0.1: Audio: mp3, 22050 Hz, stereo, s16, 32 kb/s
    Stream #0.1(jpn): Audio: aac, 48000 Hz, stereo, s16
    Stream #0.1: Audio: mp3, 48000 Hz, stereo, s16, 192 kb/s
    Stream #0.1: Audio: mp3, 48000 Hz, stereo, s16, 192 kb/s
    Stream #0.1(jpn): Audio: aac, 48000 Hz, stereo, s16
    Stream #0.1: Audio: mp3, 48000 Hz, stereo, s16, 192 kb/s
    Stream #0.1: Audio: mp3, 22050 Hz, stereo, s16, 32 kb/s
    Stream #0.1: Audio: mp3, 48000 Hz, stereo, s16, 192 kb/s
    Stream #0.1: Audio: mp3, 48000 Hz, stereo, s16, 192 kb/s
    Stream #0.1(jpn): Audio: aac, 48000 Hz, stereo, s16
    Stream #0.1: Audio: mp3, 48000 Hz, stereo, s16, 192 kb/s
    Stream #0.1(jpn): Audio: aac, 48000 Hz, stereo, s16
    Stream #0.1: Audio: mp3, 22050 Hz, stereo, s16, 32 kb/s
    Stream #0.1: Audio: mp3, 48000 Hz, stereo, s16, 192 kb/s
    Stream #0.1: Audio: mp3, 48000 Hz, stereo, s16, 32 kb/s
    Stream #0.1: Audio: mp3, 48000 Hz, stereo, s16, 160 kb/s
    Stream #0.1: Audio: mp3, 48000 Hz, stereo, s16, 128 kb/s
    Stream #0.1: Audio: mp3, 22050 Hz, stereo, s16, 32 kb/s
    Stream #0.1: Audio: mp3, 22050 Hz, stereo, s16, 32 kb/s
    Stream #0.1: Audio: mp3, 22050 Hz, stereo, s16, 32 kb/s
    Stream #0.1: Audio: mp3, 22050 Hz, stereo, s16, 32 kb/s
    Stream #0.1: Audio: mp3, 22050 Hz, stereo, s16, 32 kb/s
    Stream #0.1: Audio: mp3, 22050 Hz, stereo, s16, 32 kb/s
    Stream #0.1: Audio: mp3, 22050 Hz, stereo, s16, 32 kb/s
    Stream #0.1: Audio: mp3, 24000 Hz, stereo, s16, 48 kb/s
    Stream #0.1(eng): Audio: aac, 44100 Hz, mono, s16
    Stream #0.1: Audio: mp3, 44100 Hz, stereo, s16, 32 kb/s
    Stream #0.1(eng): Audio: aac, 44100 Hz, mono, s16
    Stream #0.1(eng): Audio: aac, 16000 Hz, mono, s16
    Stream #0.0: Audio: wmav2, 11025 Hz, mono, s16, 9 kb/s
    Stream #0.1: Audio: mp3, 22050 Hz, stereo, s16, 56 kb/s
    Stream #0.1(eng): Audio: adpcm_ima_qt, 44100 Hz, mono, s16
    Stream #0.1: Audio: mp3, 44100 Hz, stereo, s16, 32 kb/s
    Stream #0.1[0x1c0]: Audio: mp2, 44100 Hz, stereo, s16, 192 kb/s
    Stream #0.1: Audio: mp3, 44100 Hz, mono, s16, 32 kb/s
    Stream #0.1(eng): Audio: adpcm_ima_qt, 44100 Hz, mono, s16
    Stream #0.1(eng): Audio: adpcm_ima_qt, 44100 Hz, mono, s16
    Stream #0.0: Audio: wmav2, 22050 Hz, mono, s16, 20 kb/s
    Stream #0.0: Audio: wmav2, 22050 Hz, mono, s16, 20 kb/s
    Stream #0.1: Audio: mp3, 44100 Hz, mono, s16, 128 kb/s
    Stream #0.1: Audio: mp3, 44100 Hz, stereo, s16, 32 kb/s
    Stream #0.1: Audio: mp3, 44100 Hz, stereo, s16, 32 kb/s
    Stream #0.1[0x1c0]: Audio: mp2, 44100 Hz, stereo, s16, 224 kb/s
    Stream #0.1: Audio: mp3, 48000 Hz, stereo, s16, 121 kb/s
    Stream #0.1: Audio: mp3, 48000 Hz, stereo, s16, 121 kb/s
    Stream #0.1: Audio: mp3, 22050 Hz, stereo, s16, 32 kb/s
    Stream #0.1: Audio: mp3, 22050 Hz, stereo, s16, 32 kb/s
    Stream #0.1: Audio: mp3, 22050 Hz, stereo, s16, 32 kb/s
    Stream #0.1: Audio: mp3, 22050 Hz, stereo, s16, 32 kb/s
    Stream #0.1: Audio: mp3, 22050 Hz, stereo, s16, 32 kb/s
    Stream #0.1: Audio: mp3, 22050 Hz, stereo, s16, 32 kb/s
    Stream #0.1: Audio: mp3, 22050 Hz, stereo, s16, 32 kb/s
    Stream #0.1: Audio: mp3, 22050 Hz, stereo, s16, 32 kb/s
    Stream #0.1: Audio: mp3, 22050 Hz, stereo, s16, 32 kb/s
    Stream #0.0: Audio: wmav2, 44100 Hz, stereo, s16, 64 kb/s
    Stream #0.0: Audio: wmav2, 44100 Hz, mono, s16, 32 kb/s
    Stream #0.0: Audio: wmav2, 44100 Hz, stereo, s16, 64 kb/s
    Stream #0.1[0x1c0]: Audio: mp2, 32000 Hz, stereo, s16, 64 kb/s
    Stream #0.1: Audio: pcm_u8, 11025 Hz, mono, s16, 88 kb/s
    Stream #0.1: Audio: mp3, 22050 Hz, stereo, s16, 32 kb/s
    Stream #0.1[0x1c0]: Audio: mp2, 44100 Hz, mono, s16, 64 kb/s
    Stream #0.1: Audio: mp3, 22050 Hz, stereo, s16, 32 kb/s
    Stream #0.1: Audio: mp3, 22050 Hz, stereo, s16, 32 kb/s
    Stream #0.1: Audio: pcm_u8, 11025 Hz, mono, s16, 88 kb/s
    Stream #0.1: Audio: mp3, 48000 Hz, stereo, s16, 120 kb/s
    Stream #0.1: Audio: mp3, 22050 Hz, stereo, s16, 32 kb/s
    Stream #0.1: Audio: mp3, 22050 Hz, stereo, s16, 32 kb/s
    Stream #0.1: Audio: mp3, 44100 Hz, stereo, s16, 64 kb/s
    Stream #0.0: Audio: wmav2, 32000 Hz, stereo, s16, 32 kb/s
    Stream #0.0: Audio: wmav2, 44100 Hz, stereo, s16, 64 kb/s
    Stream #0.1: Audio: mp3, 22050 Hz, stereo, s16, 32 kb/s
    Stream #0.1: Audio: mp3, 22050 Hz, stereo, s16, 32 kb/s
    Stream #0.1: Audio: mp3, 22050 Hz, stereo, s16, 32 kb/s
    Stream #0.0: Audio: wmav2, 44100 Hz, stereo, s16, 64 kb/s
    Stream #0.1: Audio: mp3, 22050 Hz, stereo, s16, 32 kb/s
    Stream #0.1: Audio: mp3, 22050 Hz, stereo, s16, 32 kb/s
    Stream #0.1: Audio: mp3, 22050 Hz, mono, s16, 32 kb/s
    Stream #0.1: Audio: mp3, 44100 Hz, stereo, s16, 128 kb/s
    Stream #0.0: Audio: wmav2, 32000 Hz, stereo, s16, 40 kb/s
    Stream #0.1: Audio: mp3, 22050 Hz, stereo, s16, 32 kb/s
    Stream #0.1: Audio: mp3, 22050 Hz, stereo, s16, 32 kb/s
    Stream #0.0: Audio: wmav2, 32000 Hz, stereo, s16, 48 kb/s
    Stream #0.1: Audio: mp3, 44100 Hz, mono, s16, 160 kb/s
    Stream #0.0: Audio: wmav2, 32000 Hz, stereo, s16, 32 kb/s
    Stream #0.1: Audio: mp3, 22050 Hz, stereo, s16, 32 kb/s
    Stream #0.0: Audio: wmav2, 44100 Hz, stereo, s16, 64 kb/s
    Stream #0.0: Audio: wmav2, 16000 Hz, stereo, s16, 16 kb/s
    Stream #0.1: Audio: mp3, 22050 Hz, stereo, s16, 32 kb/s
    Stream #0.0: Audio: wmav2, 32000 Hz, stereo, s16, 32 kb/s
    Stream #0.1: Audio: mp3, 22050 Hz, stereo, s16, 32 kb/s
    Stream #0.0: Audio: wmav2, 44100 Hz, stereo, s16, 64 kb/s
    Stream #0.1: Audio: mp3, 22050 Hz, stereo, s16, 32 kb/s
    Stream #0.1: Audio: mp3, 22050 Hz, stereo, s16, 32 kb/s
    Stream #0.1: Audio: mp3, 22050 Hz, stereo, s16, 32 kb/s
    Stream #0.1: Audio: mp3, 22050 Hz, stereo, s16, 32 kb/s
    Stream #0.1[0x1c0]: Audio: mp2, 44100 Hz, stereo, s16, 224 kb/s
    Stream #0.1: Audio: mp3, 22050 Hz, stereo, s16, 32 kb/s
    Stream #0.1[0x1c0]: Audio: mp2, 44100 Hz, stereo, s16, 64 kb/s
    Stream #0.0: Audio: wmav2, 44100 Hz, stereo, s16, 96 kb/s
    Stream #0.1: Audio: mp3, 22050 Hz, stereo, s16, 32 kb/s
    Stream #0.1: Audio: mp3, 22050 Hz, stereo, s16, 32 kb/s
    Stream #0.1: Audio: mp3, 22050 Hz, stereo, s16, 32 kb/s
    Stream #0.1: Audio: mp3, 22050 Hz, stereo, s16, 32 kb/s
    Stream #0.1: Audio: mp3, 48000 Hz, stereo, s16, 112 kb/s
    Stream #0.1: Audio: mp3, 48000 Hz, stereo, s16, 192 kb/s
    Stream #0.0: Audio: wmav2, 44100 Hz, stereo, s16, 64 kb/s
    Stream #0.1: Audio: mp3, 22050 Hz, stereo, s16, 32 kb/s
    Stream #0.1: Audio: mp3, 22050 Hz, stereo, s16, 32 kb/s
    Stream #0.0: Audio: wmav2, 44100 Hz, stereo, s16, 64 kb/s
    Stream #0.1: Audio: mp3, 22050 Hz, stereo, s16, 32 kb/s
    Stream #0.1[0x1c0]: Audio: mp2, 44100 Hz, stereo, s16, 96 kb/s
    Stream #0.0: Audio: wmav2, 44100 Hz, stereo, s16, 64 kb/s
    Stream #0.1: Audio: mp3, 22050 Hz, stereo, s16, 32 kb/s
    Stream #0.1: Audio: mp3, 22050 Hz, stereo, s16, 32 kb/s
    Stream #0.1: Audio: mp3, 22050 Hz, stereo, s16, 32 kb/s
    Stream #0.0: Audio: wmav2, 44100 Hz, stereo, s16, 48 kb/s
    Stream #0.0: Audio: wmav2, 16000 Hz, mono, s16, 12 kb/s
    Stream #0.1: Audio: vorbis, 48000 Hz, stereo, s16, 32 kb/s
    Stream #0.1: Audio: mp3, 48000 Hz, stereo, s16, 160 kb/s
    Stream #0.0: Audio: wmav2, 48000 Hz, stereo, s16, 128 kb/s
    Stream #0.1: Audio: mp3, 48000 Hz, stereo, s16, 128 kb/s
    Stream #0.1: Audio: mp3, 48000 Hz, stereo, s16, 32 kb/s
    Stream #0.0: Audio: wmav2, 44100 Hz, stereo, s16, 64 kb/s
    Stream #0.1: Audio: mp3, 48000 Hz, stereo, s16, 128 kb/s
    Stream #0.1[0x1c0]: Audio: mp2, 44100 Hz, stereo, s16, 64 kb/s
    Stream #0.0: Audio: wmav2, 44100 Hz, stereo, s16, 64 kb/s
    Stream #0.1: Audio: mp3, 22050 Hz, stereo, s16, 32 kb/s
    Stream #0.1: Audio: mp3, 22050 Hz, stereo, s16, 32 kb/s
    Stream #0.1: Audio: mp3, 22050 Hz, stereo, s16, 32 kb/s
    Stream #0.0: Audio: wmav2, 44100 Hz, stereo, s16, 64 kb/s
    Stream #0.1: Audio: mp3, 22050 Hz, stereo, s16, 32 kb/s
    Stream #0.1: Audio: mp3, 22050 Hz, stereo, s16, 32 kb/s
    Stream #0.1: Audio: mp3, 48000 Hz, stereo, s16, 160 kb/s
    Stream #0.1: Audio: mp3, 22050 Hz, stereo, s16, 32 kb/s
    Stream #0.1[0x1c0]: Audio: mp2, 44100 Hz, stereo, s16, 160 kb/s
    Stream #0.0: Audio: wmav2, 32000 Hz, stereo, s16, 32 kb/s
    Stream #0.1: Audio: mp3, 22050 Hz, stereo, s16, 32 kb/s
    Stream #0.0: Audio: wmav2, 32000 Hz, stereo, s16, 32 kb/s
    Stream #0.0: Audio: wmav2, 48000 Hz, stereo, s16, 128 kb/s
    Stream #0.1[0x1c0]: Audio: mp2, 44100 Hz, stereo, s16, 224 kb/s
    Stream #0.1: Audio: mp3, 22050 Hz, stereo, s16, 32 kb/s
    Stream #0.0: Audio: wmav2, 32000 Hz, stereo, s16, 32 kb/s
    Stream #0.0: Audio: wmav2, 32000 Hz, stereo, s16, 32 kb/s
    Stream #0.1: Audio: mp3, 22050 Hz, stereo, s16, 32 kb/s
    Stream #0.0: Audio: wmav2, 44100 Hz, stereo, s16, 64 kb/s
    Stream #0.0: Audio: wmav2, 44100 Hz, stereo, s16, 64 kb/s
    Stream #0.1[0x1c0]: Audio: mp2, 44100 Hz, stereo, s16, 192 kb/s
    Stream #0.1: Audio: mp3, 24000 Hz, stereo, s16, 56 kb/s
    Stream #0.1: Audio: mp3, 22050 Hz, stereo, s16, 64 kb/s
    Stream #0.0: Audio: wmav2, 44100 Hz, stereo, s16, 31 kb/s
    Stream #0.1: Audio: mp3, 32000 Hz, stereo, s16, 64 kb/s
    Stream #0.1: Audio: mp3, 24000 Hz, stereo, s16, 56 kb/s
    Stream #0.1: Audio: mp3, 22050 Hz, stereo, s16, 32 kb/s
    Stream #0.1: Audio: mp3, 24000 Hz, stereo, s16, 56 kb/s
    Stream #0.1: Audio: mp3, 24000 Hz, stereo, s16, 56 kb/s
    Stream #0.0: Audio: wmav2, 44100 Hz, stereo, s16, 64 kb/s
    Stream #0.1: Audio: mp3, 22050 Hz, stereo, s16, 32 kb/s
    Stream #0.1: Audio: mp3, 22050 Hz, stereo, s16, 32 kb/s
    Stream #0.1: Audio: mp3, 24000 Hz, stereo, s16, 56 kb/s
    Stream #0.1: Audio: mp3, 22050 Hz, stereo, s16, 32 kb/s
    Stream #0.1: Audio: mp3, 22050 Hz, stereo, s16, 32 kb/s
    Stream #0.0: Audio: wmav2, 32000 Hz, stereo, s16, 32 kb/s
    Stream #0.1: Audio: mp3, 48000 Hz, stereo, s16, 128 kb/s
    Stream #0.1: Audio: mp3, 48000 Hz, stereo, s16, 32 kb/s
    Stream #0.1: Audio: mp3, 22050 Hz, stereo, s16, 32 kb/s
    Stream #0.1: Audio: mp3, 44100 Hz, stereo, s16, 128 kb/s
    Stream #0.0: Audio: wmav2, 44100 Hz, stereo, s16, 64 kb/s
    Stream #0.1: Audio: mp3, 44100 Hz, stereo, s16, 64 kb/s
    Stream #0.0: Audio: wmav2, 44100 Hz, stereo, s16, 64 kb/s
    Stream #0.1: Audio: mp3, 22050 Hz, stereo, s16, 32 kb/s
    Stream #0.1: Audio: mp3, 22050 Hz, stereo, s16, 32 kb/s
    Stream #0.1: Audio: mp3, 22050 Hz, stereo, s16, 32 kb/s
    Stream #0.1: Audio: mp3, 48000 Hz, stereo, s16, 32 kb/s
    Stream #0.1: Audio: mp3, 32000 Hz, stereo, s16, 128 kb/s
    Stream #0.1: Audio: mp3, 48000 Hz, stereo, s16, 32 kb/s
    Stream #0.1: Audio: mp3, 48000 Hz, stereo, s16, 112 kb/s
    Stream #0.1: Audio: mp3, 48000 Hz, stereo, s16, 112 kb/s
    Stream #0.1: Audio: mp3, 48000 Hz, stereo, s16, 128 kb/s
    Stream #0.1: Audio: mp3, 48000 Hz, stereo, s16, 128 kb/s
    Stream #0.1: Audio: mp3, 48000 Hz, stereo, s16, 112 kb/s
    Stream #0.1: Audio: mp3, 48000 Hz, stereo, s16, 112 kb/s
    Stream #0.1: Audio: mp3, 48000 Hz, stereo, s16, 128 kb/s
    Stream #0.1: Audio: mp3, 48000 Hz, stereo, s16, 112 kb/s
    Stream #0.1: Audio: mp3, 48000 Hz, stereo, s16, 128 kb/s
    Stream #0.1: Audio: mp3, 48000 Hz, stereo, s16, 160 kb/s
    Stream #0.1: Audio: mp3, 48000 Hz, stereo, s16, 128 kb/s
    Stream #0.1: Audio: mp3, 48000 Hz, stereo, s16, 32 kb/s
    Stream #0.1: Audio: mp3, 48000 Hz, stereo, s16, 112 kb/s
    Stream #0.1: Audio: mp3, 48000 Hz, stereo, s16, 80 kb/s
    Stream #0.1: Audio: mp3, 48000 Hz, stereo, s16, 128 kb/s
    Stream #0.1: Audio: mp3, 48000 Hz, stereo, s16, 128 kb/s
    Stream #0.1: Audio: mp3, 48000 Hz, stereo, s16, 112 kb/s
    Stream #0.1: Audio: mp3, 48000 Hz, stereo, s16, 128 kb/s
    Stream #0.1: Audio: mp3, 48000 Hz, stereo, s16, 32 kb/s
    Stream #0.1: Audio: mp3, 22050 Hz, stereo, s16, 32 kb/s
    Stream #0.1: Audio: mp3, 22050 Hz, stereo, s16, 32 kb/s
    Stream #0.1: Audio: mp3, 22050 Hz, stereo, s16, 32 kb/s
    Stream #0.1: Audio: mp3, 22050 Hz, stereo, s16, 32 kb/s
    Stream #0.1: Audio: mp3, 22050 Hz, stereo, s16, 32 kb/s
    Stream #0.1: Audio: mp3, 22050 Hz, stereo, s16, 32 kb/s
    Stream #0.1: Audio: mp3, 22050 Hz, mono, s16, 24 kb/s
    Stream #0.1: Audio: mp3, 22050 Hz, stereo, s16, 32 kb/s
    Stream #0.0: Audio: wmav2, 44100 Hz, stereo, s16, 80 kb/s
    Stream #0.1: Audio: mp3, 22050 Hz, stereo, s16, 32 kb/s
    Stream #0.0: Audio: wmav2, 44100 Hz, stereo, s16, 64 kb/s
    Stream #0.1: Audio: mp3, 22050 Hz, stereo, s16, 32 kb/s
    Stream #0.1: Audio: mp3, 22050 Hz, stereo, s16, 32 kb/s
    Stream #0.1: Audio: mp3, 22050 Hz, stereo, s16, 32 kb/s
    Stream #0.0: Audio: wmav2, 44100 Hz, stereo, s16, 64 kb/s
    Stream #0.1: Audio: mp3, 48000 Hz, stereo, s16, 128 kb/s
    Stream #0.1: Audio: mp3, 22050 Hz, stereo, s16, 32 kb/s
    Stream #0.1: Audio: mp3, 22050 Hz, stereo, s16, 32 kb/s
    Stream #0.1: Audio: mp3, 22050 Hz, stereo, s16, 32 kb/s
    Stream #0.1: Audio: mp3, 22050 Hz, stereo, s16, 32 kb/s
    Stream #0.1: Audio: mp3, 22050 Hz, stereo, s16, 32 kb/s
    Stream #0.1: Audio: mp3, 22050 Hz, stereo, s16, 32 kb/s
    Stream #0.1: Audio: mp3, 22050 Hz, stereo, s16, 32 kb/s
    Stream #0.1: Audio: mp3, 22050 Hz, stereo, s16, 32 kb/s
    Stream #0.1: Audio: mp3, 22050 Hz, stereo, s16, 32 kb/s
    Stream #0.1: Audio: mp3, 22050 Hz, stereo, s16, 32 kb/s
    Stream #0.1: Audio: mp3, 22050 Hz, stereo, s16, 32 kb/s
    Stream #0.1: Audio: mp3, 22050 Hz, stereo, s16, 32 kb/s
    Stream #0.1: Audio: mp3, 22050 Hz, stereo, s16, 32 kb/s
    Stream #0.1: Audio: mp3, 22050 Hz, stereo, s16, 64 kb/s
    Stream #0.1: Audio: mp3, 22050 Hz, stereo, s16, 32 kb/s
    Stream #0.1: Audio: mp3, 22050 Hz, stereo, s16, 32 kb/s
    Stream #0.1: Audio: mp3, 22050 Hz, stereo, s16, 32 kb/s
    Stream #0.1: Audio: mp3, 22050 Hz, stereo, s16, 32 kb/s
    Stream #0.1: Audio: mp3, 22050 Hz, stereo, s16, 32 kb/s
    Stream #0.1: Audio: mp3, 22050 Hz, stereo, s16, 32 kb/s
    Stream #0.1: Audio: mp3, 22050 Hz, stereo, s16, 32 kb/s
    Stream #0.1: Audio: mp3, 22050 Hz, stereo, s16, 32 kb/s
    Stream #0.1: Audio: mp3, 22050 Hz, stereo, s16, 32 kb/s
    Stream #0.1: Audio: mp3, 22050 Hz, stereo, s16, 32 kb/s
    Stream #0.1: Audio: mp3, 22050 Hz, stereo, s16, 32 kb/s
    Stream #0.0: Audio: wmav2, 44100 Hz, stereo, s16, 64 kb/s
    Stream #0.1: Audio: mp3, 22050 Hz, stereo, s16, 32 kb/s
    Stream #0.1: Audio: mp3, 22050 Hz, stereo, s16, 32 kb/s
    Stream #0.1: Audio: mp3, 22050 Hz, stereo, s16, 32 kb/s
    Stream #0.1: Audio: mp3, 22050 Hz, stereo, s16, 32 kb/s
    Stream #0.1: Audio: mp3, 22050 Hz, stereo, s16, 32 kb/s
    Stream #0.1: Audio: mp3, 22050 Hz, stereo, s16, 32 kb/s
    Stream #0.1: Audio: mp3, 32000 Hz, stereo, s16, 64 kb/s
    Stream #0.1: Audio: mp3, 22050 Hz, stereo, s16, 32 kb/s
    Stream #0.1: Audio: mp3, 22050 Hz, stereo, s16, 32 kb/s
    Stream #0.1: Audio: mp3, 22050 Hz, stereo, s16, 32 kb/s
    Stream #0.1: Audio: mp3, 22050 Hz, stereo, s16, 32 kb/s
    Stream #0.1: Audio: mp3, 22050 Hz, stereo, s16, 32 kb/s
    Stream #0.1: Audio: mp3, 22050 Hz, stereo, s16, 32 kb/s
    Stream #0.1: Audio: mp3, 22050 Hz, stereo, s16, 32 kb/s
    Stream #0.1: Audio: mp3, 22050 Hz, stereo, s16, 32 kb/s
    Stream #0.1: Audio: mp3, 22050 Hz, stereo, s16, 32 kb/s
    Stream #0.1: Audio: mp3, 22050 Hz, stereo, s16, 32 kb/s
    Stream #0.1: Audio: mp3, 22050 Hz, stereo, s16, 32 kb/s
    Stream #0.1: Audio: mp3, 22050 Hz, stereo, s16, 32 kb/s
    Stream #0.1: Audio: mp3, 22050 Hz, stereo, s16, 32 kb/s
    Stream #0.1: Audio: mp3, 22050 Hz, stereo, s16, 32 kb/s
    Stream #0.1: Audio: mp3, 22050 Hz, stereo, s16, 32 kb/s
    Stream #0.1: Audio: mp3, 22050 Hz, stereo, s16, 32 kb/s
    Stream #0.1: Audio: mp3, 22050 Hz, stereo, s16, 32 kb/s
    Stream #0.1: Audio: mp3, 22050 Hz, stereo, s16, 32 kb/s
    Stream #0.1: Audio: mp3, 22050 Hz, stereo, s16, 32 kb/s
    Stream #0.1: Audio: mp3, 48000 Hz, stereo, s16, 96 kb/s
    Stream #0.1: Audio: mp3, 48000 Hz, stereo, s16, 192 kb/s
    Stream #0.1: Audio: mp3, 44100 Hz, stereo, s16, 128 kb/s
    Stream #0.1: Audio: mp3, 48000 Hz, stereo, s16, 32 kb/s
    Stream #0.1: Audio: mp3, 44100 Hz, stereo, s16, 128 kb/s
    Stream #0.1: Audio: mp3, 48000 Hz, stereo, s16, 32 kb/s
    Stream #0.1: Audio: mp3, 48000 Hz, stereo, s16, 128 kb/s
    Stream #0.1: Audio: mp3, 48000 Hz, stereo, s16, 112 kb/s
    Stream #0.1: Audio: mp3, 48000 Hz, stereo, s16, 112 kb/s
    Stream #0.1: Audio: mp3, 48000 Hz, stereo, s16, 128 kb/s
    Stream #0.1: Audio: mp3, 48000 Hz, stereo, s16, 112 kb/s
    Stream #0.1: Audio: mp3, 48000 Hz, stereo, s16, 112 kb/s
    Stream #0.1: Audio: mp3, 48000 Hz, stereo, s16, 112 kb/s
    Stream #0.1: Audio: mp3, 48000 Hz, stereo, s16, 128 kb/s
    Stream #0.1: Audio: mp3, 48000 Hz, stereo, s16, 128 kb/s
    Stream #0.1: Audio: mp3, 48000 Hz, stereo, s16, 112 kb/s
    Stream #0.1: Audio: mp3, 48000 Hz, stereo, s16, 112 kb/s
    Stream #0.1: Audio: mp3, 48000 Hz, stereo, s16, 128 kb/s
    Stream #0.1: Audio: mp3, 48000 Hz, stereo, s16, 128 kb/s
    Stream #0.1: Audio: mp3, 48000 Hz, stereo, s16, 112 kb/s
    Stream #0.1: Audio: mp3, 48000 Hz, stereo, s16, 160 kb/s
    Stream #0.1: Audio: mp3, 48000 Hz, stereo, s16, 32 kb/s
    Stream #0.1: Audio: mp3, 48000 Hz, stereo, s16, 32 kb/s
    Stream #0.1: Audio: mp3, 48000 Hz, stereo, s16, 128 kb/s
    Stream #0.1: Audio: mp3, 48000 Hz, stereo, s16, 128 kb/s
    Stream #0.1: Audio: mp3, 44100 Hz, stereo, s16, 128 kb/s
    Stream #0.1: Audio: mp3, 48000 Hz, stereo, s16, 128 kb/s
    Stream #0.1: Audio: mp3, 22050 Hz, stereo, s16, 32 kb/s
    Stream #0.1: Audio: mp3, 44100 Hz, stereo, s16, 128 kb/s
    Stream #0.0: Audio: wmav2, 44100 Hz, stereo, s16, 64 kb/s
    Stream #0.1: Audio: mp3, 22050 Hz, stereo, s16, 32 kb/s
    Stream #0.0: Audio: wmav2, 44100 Hz, stereo, s16, 128 kb/s
    Stream #0.0: Audio: wmav2, 44100 Hz, stereo, s16, 128 kb/s
    Stream #0.0: Audio: wmav2, 44100 Hz, stereo, s16, 128 kb/s
    Stream #0.0: Audio: wmav2, 44100 Hz, stereo, s16, 128 kb/s
    Stream #0.0: Audio: wmav2, 44100 Hz, stereo, s16, 128 kb/s
    Stream #0.0: Audio: wmav2, 44100 Hz, stereo, s16, 128 kb/s
    Stream #0.0: Audio: wmav2, 44100 Hz, stereo, s16, 128 kb/s
    Stream #0.0: Audio: wmav2, 44100 Hz, stereo, s16, 128 kb/s
    Stream #0.1: Audio: mp3, 22050 Hz, stereo, s16, 32 kb/s
    Stream #0.1: Audio: mp3, 22050 Hz, stereo, s16, 32 kb/s
    Stream #0.1: Audio: mp3, 44100 Hz, stereo, s16, 128 kb/s
    Stream #0.0[0x1c0]: Audio: mp1, 44100 Hz, mono, s16, 96 kb/s
    Stream #0.1: Audio: mp3, 22050 Hz, stereo, s16, 32 kb/s
    Stream #0.1: Audio: mp3, 22050 Hz, stereo, s16, 32 kb/s
    Stream #0.1: Audio: mp3, 22050 Hz, stereo, s16, 32 kb/s
    Stream #0.1: Audio: mp3, 22050 Hz, stereo, s16, 32 kb/s
    Stream #0.1: Audio: mp3, 22050 Hz, stereo, s16, 32 kb/s
    Stream #0.1: Audio: mp3, 22050 Hz, stereo, s16, 32 kb/s
    Stream #0.0: Audio: wmav2, 44100 Hz, stereo, s16, 64 kb/s
    Stream #0.1: Audio: mp3, 22050 Hz, stereo, s16, 32 kb/s
    Stream #0.0: Audio: wmav2, 44100 Hz, stereo, s16, 88 kb/s
    Stream #0.1: Audio: mp3, 22050 Hz, stereo, s16, 32 kb/s
    Stream #0.1: Audio: mp3, 22050 Hz, stereo, s16, 32 kb/s
    Stream #0.1: Audio: mp3, 22050 Hz, stereo, s16, 32 kb/s
    Stream #0.0: Audio: wmav2, 44100 Hz, stereo, s16, 64 kb/s
    Stream #0.1: Audio: mp3, 22050 Hz, stereo, s16, 32 kb/s
    Stream #0.1: Audio: mp3, 22050 Hz, stereo, s16, 32 kb/s
    Stream #0.1: Audio: mp2, 48000 Hz, stereo, s16, 192 kb/s
    Stream #0.1: Audio: mp2, 48000 Hz, stereo, s16, 192 kb/s
    Stream #0.1[0x1c0]: Audio: mp2, 44100 Hz, stereo, s16, 224 kb/s
    Stream #0.0: Audio: wmav2, 32000 Hz, stereo, s16, 32 kb/s
    Stream #0.0: Audio: wmav2, 44100 Hz, stereo, s16, 64 kb/s
    Stream #0.1: Audio: mp3, 44100 Hz, stereo, s16, 128 kb/s
    Stream #0.1: Audio: mp3, 48000 Hz, stereo, s16, 128 kb/s
    Stream #0.1: Audio: mp3, 48000 Hz, stereo, s16, 128 kb/s
    Stream #0.1: Audio: mp3, 44100 Hz, stereo, s16, 128 kb/s
    Stream #0.1: Audio: mp3, 48000 Hz, stereo, s16, 160 kb/s
    Stream #0.1: Audio: mp3, 44100 Hz, stereo, s16, 128 kb/s
    Stream #0.1: Audio: mp3, 48000 Hz, stereo, s16, 128 kb/s
    Stream #0.1: Audio: mp3, 48000 Hz, stereo, s16, 256 kb/s
    Stream #0.1: Audio: mp3, 44100 Hz, stereo, s16, 128 kb/s
    Stream #0.1: Audio: mp3, 22050 Hz, stereo, s16, 32 kb/s
    Stream #0.1: Audio: mp3, 22050 Hz, stereo, s16, 32 kb/s
    Stream #0.1: Audio: mp3, 22050 Hz, stereo, s16, 32 kb/s
    Stream #0.1: Audio: mp3, 22050 Hz, stereo, s16, 32 kb/s
    Stream #0.1: Audio: mp3, 22050 Hz, stereo, s16, 32 kb/s
    Stream #0.1: Audio: mp3, 22050 Hz, stereo, s16, 32 kb/s
    Stream #0.1: Audio: mp3, 48000 Hz, stereo, s16, 64 kb/s
    Stream #0.1: Audio: mp3, 22050 Hz, stereo, s16, 32 kb/s
    Stream #0.1[0x1c0]: Audio: mp2, 44100 Hz, mono, s16, 64 kb/s
    Stream #0.1: Audio: mp3, 22050 Hz, stereo, s16, 32 kb/s
    Stream #0.1: Audio: mp3, 22050 Hz, stereo, s16, 32 kb/s
    Stream #0.1: Audio: mp3, 22050 Hz, stereo, s16, 32 kb/s
    Stream #0.1: Audio: mp3, 22050 Hz, stereo, s16, 32 kb/s
    Stream #0.1: Audio: mp3, 22050 Hz, stereo, s16, 32 kb/s
    Stream #0.0: Audio: wmav2, 44100 Hz, stereo, s16, 31 kb/s
    Stream #0.1: Audio: mp3, 22050 Hz, stereo, s16, 32 kb/s
    Stream #0.0: Audio: wmav2, 48000 Hz, stereo, s16, 96 kb/s
    Stream #0.1: Audio: mp3, 22050 Hz, stereo, s16, 32 kb/s
    Stream #0.0: Audio: wmav1, 44100 Hz, stereo, s16, 64 kb/s
    Stream #0.1[0x1c0]: Audio: mp2, 44100 Hz, stereo, s16, 128 kb/s
    Stream #0.0: Audio: wmav2, 44100 Hz, stereo, s16, 64 kb/s
    Stream #0.0: Audio: wmav2, 32000 Hz, stereo, s16, 48 kb/s
    Stream #0.0: Audio: 0x0130, 8000 Hz, mono, s16, 6 kb/s
    Stream #0.1[0x1c0]: Audio: mp2, 44100 Hz, stereo, s16, 128 kb/s
    Stream #0.1: Audio: pcm_u8, 11024 Hz, mono, s16, 88 kb/s
    Stream #0.0: Audio: wmav2, 32000 Hz, stereo, s16, 32 kb/s
    Stream #0.1: Audio: pcm_u8, 16000 Hz, mono, s16, 128 kb/s
    Stream #0.0: Audio: wmav2, 44100 Hz, stereo, s16, 64 kb/s
    Stream #0.1: Audio: pcm_u8, 22050 Hz, mono, s16, 176 kb/s
    Stream #0.0: Audio: wmav2, 44100 Hz, stereo, s16, 64 kb/s
    Stream #0.0: Audio: wmav2, 16000 Hz, mono, s16, 16 kb/s
    Stream #0.0: Audio: wmav2, 44100 Hz, stereo, s16, 48 kb/s
    Stream #0.0: Audio: wmav2, 44100 Hz, stereo, s16, 64 kb/s
    Stream #0.1: Audio: mp3, 22050 Hz, stereo, s16, 56 kb/s
    Stream #0.1[0x1c0]: Audio: mp2, 44100 Hz, stereo, s16, 128 kb/s
    Stream #0.1: Audio: pcm_u8, 11024 Hz, mono, s16, 88 kb/s
    Stream #0.1: Audio: mp3, 22050 Hz, mono, s16, 32 kb/s
    Stream #0.0: Audio: wmav2, 32000 Hz, stereo, s16, 32 kb/s
    Stream #0.0[0x1c0]: Audio: mp2, 44100 Hz, stereo, s16, 128 kb/s
    Stream #0.1: Audio: pcm_u8, 22050 Hz, mono, s16, 176 kb/s
    Stream #0.1: Audio: mp3, 22050 Hz, stereo, s16, 32 kb/s
    Stream #0.0[0x1c0]: Audio: mp2, 32000 Hz, mono, s16, 64 kb/s
    Stream #0.0[0x1c0]: Audio: mp2, 32000 Hz, mono, s16, 64 kb/s
    Stream #0.0: Audio: wmav2, 22050 Hz, stereo, s16, 32 kb/s
    Stream #0.1[0x1c0]: Audio: mp2, 44100 Hz, stereo, s16, 192 kb/s
    Stream #0.0: Audio: wmav2, 44100 Hz, stereo, s16, 128 kb/s
    Stream #0.1: Audio: mp3, 48000 Hz, stereo, s16, 128 kb/s
    Stream #0.1: Audio: mp3, 48000 Hz, stereo, s16, 160 kb/s
    Stream #0.1: Audio: mp3, 44100 Hz, stereo, s16, 80 kb/s
    Stream #0.1: Audio: mp3, 48000 Hz, stereo, s16, 128 kb/s
    Stream #0.1: Audio: mp3, 48000 Hz, stereo, s16, 32 kb/s
    Stream #0.1: Audio: mp3, 48000 Hz, stereo, s16, 32 kb/s
    Stream #0.1: Audio: mp3, 48000 Hz, stereo, s16, 128 kb/s
    Stream #0.1: Audio: mp3, 48000 Hz, stereo, s16, 112 kb/s
    Stream #0.1: Audio: mp3, 48000 Hz, stereo, s16, 112 kb/s
    Stream #0.1: Audio: mp3, 22050 Hz, stereo, s16, 32 kb/s
    Stream #0.1: Audio: mp3, 22050 Hz, stereo, s16, 32 kb/s
    Stream #0.1: Audio: mp3, 22050 Hz, stereo, s16, 32 kb/s
    Stream #0.1: Audio: mp3, 22050 Hz, stereo, s16, 32 kb/s
    Stream #0.1: Audio: mp3, 22050 Hz, stereo, s16, 32 kb/s
    Stream #0.1: Audio: mp3, 22050 Hz, stereo, s16, 32 kb/s
    Stream #0.1: Audio: mp3, 22050 Hz, stereo, s16, 32 kb/s
    Stream #0.1: Audio: mp3, 22050 Hz, stereo, s16, 32 kb/s
    Stream #0.1: Audio: mp3, 22050 Hz, stereo, s16, 32 kb/s
    Stream #0.1: Audio: mp3, 22050 Hz, stereo, s16, 32 kb/s
    Stream #0.1: Audio: mp3, 22050 Hz, stereo, s16, 32 kb/s
    Stream #0.1: Audio: mp3, 22050 Hz, stereo, s16, 32 kb/s
    Stream #0.1: Audio: mp3, 22050 Hz, stereo, s16, 32 kb/s
    Stream #0.1: Audio: mp3, 22050 Hz, stereo, s16, 32 kb/s
    Stream #0.1: Audio: mp3, 22050 Hz, stereo, s16, 32 kb/s
    Stream #0.1: Audio: mp3, 22050 Hz, stereo, s16, 32 kb/s
    Stream #0.1: Audio: mp3, 22050 Hz, stereo, s16, 32 kb/s
    Stream #0.1: Audio: mp3, 22050 Hz, stereo, s16, 32 kb/s
    Stream #0.1: Audio: mp3, 22050 Hz, stereo, s16, 32 kb/s
    Stream #0.1: Audio: mp3, 22050 Hz, stereo, s16, 32 kb/s
    Stream #0.1: Audio: mp3, 22050 Hz, mono, s16, 32 kb/s
    Stream #0.1: Audio: mp3, 22050 Hz, stereo, s16, 32 kb/s
    Stream #0.1: Audio: mp3, 22050 Hz, stereo, s16, 32 kb/s
    Stream #0.1: Audio: mp3, 22050 Hz, stereo, s16, 32 kb/s
    Stream #0.0: Audio: wmav2, 44100 Hz, stereo, s16, 128 kb/s
    Stream #0.1: Audio: mp3, 22050 Hz, stereo, s16, 32 kb/s
    Stream #0.1: Audio: mp3, 22050 Hz, stereo, s16, 32 kb/s
    Stream #0.1: Audio: mp3, 22050 Hz, stereo, s16, 32 kb/s
    Stream #0.1: Audio: mp3, 22050 Hz, stereo, s16, 32 kb/s
    Stream #0.1: Audio: mp3, 48000 Hz, stereo, s16, 128 kb/s
    Stream #0.1: Audio: mp3, 48000 Hz, stereo, s16, 112 kb/s
    Stream #0.1: Audio: mp3, 48000 Hz, stereo, s16, 112 kb/s
    Stream #0.1: Audio: mp3, 48000 Hz, stereo, s16, 128 kb/s
    Stream #0.1: Audio: mp3, 48000 Hz, stereo, s16, 192 kb/s
    Stream #0.1: Audio: 0x0216, 44100 Hz, stereo, s16, 1728 kb/s
    Stream #0.1: Audio: mp3, 48000 Hz, stereo, s16, 160 kb/s
    Stream #0.1: Audio: mp3, 22050 Hz, stereo, s16, 32 kb/s
    Stream #0.1: Audio: mp3, 22050 Hz, stereo, s16, 32 kb/s
    Stream #0.1: Audio: mp3, 22050 Hz, stereo, s16, 32 kb/s
    Stream #0.1: Audio: mp3, 48000 Hz, stereo, s16, 32 kb/s
    Stream #0.1: Audio: mp3, 48000 Hz, stereo, s16, 160 kb/s
    Stream #0.1: Audio: mp3, 48000 Hz, stereo, s16, 32 kb/s
    Stream #0.1: Audio: mp3, 48000 Hz, stereo, s16, 160 kb/s
    Stream #0.1: Audio: 0x0216, 44100 Hz, stereo, s16, 1728 kb/s
    Stream #0.1: Audio: mp3, 48000 Hz, stereo, s16, 112 kb/s
    Stream #0.1: Audio: mp3, 48000 Hz, stereo, s16, 112 kb/s
    Stream #0.1: Audio: mp3, 48000 Hz, stereo, s16, 96 kb/s
    Stream #0.1: Audio: mp3, 48000 Hz, stereo, s16, 32 kb/s
    Stream #0.0: Audio: wmav2, 48000 Hz, stereo, s16, 96 kb/s
    Stream #0.1: Audio: mp3, 48000 Hz, stereo, s16, 128 kb/s
    Stream #0.1: Audio: mp3, 48000 Hz, stereo, s16, 192 kb/s
    Stream #0.1: Audio: mp3, 48000 Hz, stereo, s16, 32 kb/s
    Stream #0.1: Audio: mp3, 48000 Hz, stereo, s16, 112 kb/s
    Stream #0.1: Audio: mp3, 48000 Hz, stereo, s16, 112 kb/s
    Stream #0.1: Audio: mp3, 48000 Hz, stereo, s16, 192 kb/s
    Stream #0.1: Audio: mp3, 48000 Hz, stereo, s16, 32 kb/s
    Stream #0.1: Audio: mp3, 48000 Hz, stereo, s16, 128 kb/s
    Stream #0.1: Audio: mp3, 48000 Hz, stereo, s16, 112 kb/s
    Stream #0.1: Audio: mp3, 48000 Hz, stereo, s16, 32 kb/s
    Stream #0.1: Audio: mp3, 48000 Hz, stereo, s16, 160 kb/s
    Stream #0.1: Audio: mp3, 48000 Hz, stereo, s16, 32 kb/s
    Stream #0.1: Audio: mp3, 48000 Hz, stereo, s16, 128 kb/s
    Stream #0.1: Audio: mp3, 48000 Hz, stereo, s16, 128 kb/s
    Stream #0.1: Audio: mp3, 48000 Hz, stereo, s16, 112 kb/s
    Stream #0.1: Audio: mp3, 48000 Hz, stereo, s16, 160 kb/s
    Stream #0.1: Audio: mp3, 48000 Hz, stereo, s16, 160 kb/s
    Stream #0.1: Audio: mp3, 48000 Hz, stereo, s16, 112 kb/s
    Stream #0.1: Audio: mp3, 48000 Hz, stereo, s16, 112 kb/s
    Stream #0.1: Audio: wmav2, 48000 Hz, stereo, s16, 96 kb/s
    Stream #0.1: Audio: mp3, 48000 Hz, stereo, s16, 96 kb/s
    Stream #0.1: Audio: mp3, 48000 Hz, stereo, s16, 32 kb/s
    Stream #0.1: Audio: mp3, 48000 Hz, stereo, s16, 160 kb/s
    Stream #0.1: Audio: mp3, 22050 Hz, stereo, s16, 64 kb/s
    Stream #0.1: Audio: mp3, 22050 Hz, stereo, s16, 32 kb/s
    Stream #0.1: Audio: mp3, 22050 Hz, stereo, s16, 40 kb/s
    Stream #0.1: Audio: mp3, 48000 Hz, stereo, s16, 160 kb/s
    Stream #0.1: Audio: mp3, 48000 Hz, stereo, s16, 104 kb/s
    Stream #0.1: Audio: mp3, 48000 Hz, stereo, s16, 224 kb/s
    Stream #0.1: Audio: mp3, 48000 Hz, stereo, s16, 96 kb/s
    Stream #0.1: Audio: mp3, 48000 Hz, stereo, s16, 160 kb/s
    Stream #0.1: Audio: mp3, 48000 Hz, stereo, s16, 112 kb/s
    Stream #0.1: Audio: mp3, 22050 Hz, stereo, s16, 32 kb/s
    Stream #0.1: Audio: mp3, 22050 Hz, stereo, s16, 128 kb/s
    Stream #0.1[0x1c0]: Audio: mp2, 44100 Hz, mono, s16, 32 kb/s
    Stream #0.1: Audio: mp3, 22050 Hz, stereo, s16, 32 kb/s
    Stream #0.1: Audio: mp3, 22050 Hz, stereo, s16, 32 kb/s
    Stream #0.1: Audio: mp3, 22050 Hz, stereo, s16, 32 kb/s
    Stream #0.1: Audio: mp3, 22050 Hz, stereo, s16, 32 kb/s
    Stream #0.1: Audio: mp3, 22050 Hz, stereo, s16, 32 kb/s
    Stream #0.1: Audio: mp3, 22050 Hz, stereo, s16, 64 kb/s
    Stream #0.1: Audio: mp3, 22050 Hz, stereo, s16, 32 kb/s
    Stream #0.1: Audio: mp3, 22050 Hz, stereo, s16, 32 kb/s
    Stream #0.1: Audio: mp3, 22050 Hz, stereo, s16, 32 kb/s
    Stream #0.0: Audio: wmav2, 32000 Hz, stereo, s16, 40 kb/s
    Stream #0.1: Audio: mp3, 48000 Hz, stereo, s16, 96 kb/s
    Stream #0.0: Audio: wmav2, 44100 Hz, stereo, s16, 64 kb/s
    Stream #0.1: Audio: mp3, 22050 Hz, stereo, s16, 32 kb/s
    Stream #0.1: Audio: mp3, 22050 Hz, stereo, s16, 32 kb/s
    Stream #0.1: Audio: mp3, 22050 Hz, stereo, s16, 32 kb/s
    Stream #0.1: Audio: mp3, 22050 Hz, stereo, s16, 32 kb/s
    Stream #0.1: Audio: mp3, 22050 Hz, stereo, s16, 32 kb/s
    Stream #0.1: Audio: mp3, 22050 Hz, stereo, s16, 32 kb/s
    Stream #0.1: Audio: mp3, 48000 Hz, stereo, s16, 80 kb/s
    Stream #0.1: Audio: mp3, 22050 Hz, stereo, s16, 32 kb/s
    Stream #0.1: Audio: mp3, 22050 Hz, stereo, s16, 32 kb/s
    Stream #0.1: Audio: mp3, 48000 Hz, stereo, s16, 128 kb/s
    Stream #0.0: Audio: wmav2, 44100 Hz, stereo, s16, 64 kb/s
    Stream #0.1: Audio: mp3, 48000 Hz, stereo, s16, 112 kb/s
    Stream #0.1: Audio: mp3, 48000 Hz, stereo, s16, 112 kb/s
    Stream #0.1: Audio: mp3, 48000 Hz, stereo, s16, 112 kb/s
    Stream #0.1: Audio: mp3, 48000 Hz, stereo, s16, 128 kb/s
    Stream #0.1: Audio: mp3, 48000 Hz, stereo, s16, 112 kb/s
    Stream #0.1: Audio: mp3, 48000 Hz, stereo, s16, 128 kb/s
    Stream #0.1: Audio: mp3, 22050 Hz, stereo, s16, 32 kb/s
    Stream #0.0: Audio: wmav2, 44100 Hz, stereo, s16, 48 kb/s
    Stream #0.1: Audio: mp3, 22050 Hz, stereo, s16, 32 kb/s
    Stream #0.1: Audio: mp3, 22050 Hz, stereo, s16, 32 kb/s
    Stream #0.1: Audio: mp3, 22050 Hz, stereo, s16, 32 kb/s
    Stream #0.1: Audio: mp3, 22050 Hz, stereo, s16, 32 kb/s
    Stream #0.1: Audio: mp3, 22050 Hz, stereo, s16, 32 kb/s
    Stream #0.1: Audio: wmav2, 44100 Hz, stereo, s16, 64 kb/s
    Stream #0.1: Audio: mp3, 22050 Hz, stereo, s16, 32 kb/s
    Stream #0.1: Audio: mp3, 22050 Hz, stereo, s16, 32 kb/s
    Stream #0.0: Audio: wmav2, 44100 Hz, stereo, s16, 64 kb/s
    Stream #0.1: Audio: mp3, 22050 Hz, stereo, s16, 32 kb/s
    Stream #0.1: Audio: mp3, 22050 Hz, stereo, s16, 32 kb/s
    Stream #0.1: Audio: mp3, 22050 Hz, stereo, s16, 32 kb/s
    Stream #0.1: Audio: mp3, 22050 Hz, stereo, s16, 32 kb/s
    Stream #0.1: Audio: mp3, 22050 Hz, stereo, s16, 32 kb/s
    Stream #0.1: Audio: mp3, 22050 Hz, stereo, s16, 32 kb/s
    Stream #0.1: Audio: mp3, 22050 Hz, stereo, s16, 32 kb/s
    Stream #0.1: Audio: mp3, 22050 Hz, stereo, s16, 32 kb/s
    Stream #0.1: Audio: mp3, 22050 Hz, stereo, s16, 32 kb/s
    Stream #0.1: Audio: mp3, 44100 Hz, stereo, s16, 64 kb/s
    Stream #0.1: Audio: mp3, 22050 Hz, stereo, s16, 32 kb/s
    Stream #0.1: Audio: mp3, 22050 Hz, stereo, s16, 32 kb/s
    Stream #0.1: Audio: mp2, 22050 Hz, mono, s16, 181 kb/s
    Stream #0.1[0x1c0]: Audio: mp2, 48000 Hz, stereo, s16, 96 kb/s
    Stream #0.0: Audio: wmav2, 44100 Hz, stereo, s16, 64 kb/s
    Stream #0.0: Audio: wmav2, 44100 Hz, stereo, s16, 64 kb/s
    Stream #0.0: Audio: wmav2, 44100 Hz, stereo, s16, 64 kb/s
    Stream #0.0: Audio: wmav2, 44100 Hz, stereo, s16, 64 kb/s
    Stream #0.0: Audio: wmav2, 44100 Hz, stereo, s16, 64 kb/s
    Stream #0.0: Audio: wmav2, 44100 Hz, stereo, s16, 64 kb/s
    Stream #0.0: Audio: wmav2, 48000 Hz, stereo, s16, 96 kb/s
    Stream #0.0: Audio: wmav2, 44100 Hz, stereo, s16, 64 kb/s
    Stream #0.0: Audio: wmav2, 44100 Hz, stereo, s16, 64 kb/s
    Stream #0.0: Audio: wmav2, 44100 Hz, stereo, s16, 64 kb/s
    Stream #0.0: Audio: wmav2, 44100 Hz, stereo, s16, 64 kb/s
    Stream #0.0: Audio: wmav2, 44100 Hz, stereo, s16, 64 kb/s
    Stream #0.0: Audio: wmav2, 44100 Hz, stereo, s16, 64 kb/s
    Stream #0.0: Audio: wmav2, 44100 Hz, stereo, s16, 64 kb/s
    Stream #0.0: Audio: wmav2, 44100 Hz, stereo, s16, 64 kb/s
    Stream #0.0: Audio: wmav2, 44100 Hz, stereo, s16, 64 kb/s
    Stream #0.0: Audio: wmav2, 44100 Hz, stereo, s16, 64 kb/s
    Stream #0.0: Audio: wmav2, 44100 Hz, stereo, s16, 64 kb/s
    Stream #0.0: Audio: wmav2, 44100 Hz, stereo, s16, 64 kb/s
    Stream #0.0: Audio: wmav2, 48000 Hz, stereo, s16, 96 kb/s
    Stream #0.0: Audio: wmav2, 44100 Hz, stereo, s16, 64 kb/s
    Stream #0.0: Audio: wmav2, 44100 Hz, stereo, s16, 64 kb/s
    Stream #0.0: Audio: wmav2, 44100 Hz, stereo, s16, 64 kb/s
    Stream #0.0: Audio: wmav2, 44100 Hz, stereo, s16, 64 kb/s
    Stream #0.0: Audio: wmav2, 44100 Hz, stereo, s16, 64 kb/s
    Stream #0.0: Audio: wmav2, 44100 Hz, stereo, s16, 64 kb/s
    Stream #0.0: Audio: wmav2, 44100 Hz, stereo, s16, 64 kb/s
    Stream #0.0: Audio: wmav2, 44100 Hz, stereo, s16, 64 kb/s
    Stream #0.0: Audio: wmav2, 48000 Hz, stereo, s16, 96 kb/s
    Stream #0.0: Audio: wmav2, 44100 Hz, stereo, s16, 64 kb/s
    Stream #0.0: Audio: wmav2, 44100 Hz, stereo, s16, 64 kb/s
    Stream #0.1[0x1c0]: Audio: mp2, 44100 Hz, stereo, s16, 224 kb/s
    Stream #0.0: Audio: wmav2, 44100 Hz, stereo, s16, 64 kb/s
    Stream #0.0: Audio: wmav2, 44100 Hz, stereo, s16, 64 kb/s
    Stream #0.0: Audio: wmav2, 44100 Hz, stereo, s16, 64 kb/s
    Stream #0.0: Audio: wmav2, 44100 Hz, stereo, s16, 64 kb/s
    Stream #0.0: Audio: wmav2, 44100 Hz, stereo, s16, 64 kb/s
    Stream #0.0: Audio: wmav2, 44100 Hz, stereo, s16, 64 kb/s
    Stream #0.0: Audio: wmav2, 44100 Hz, stereo, s16, 64 kb/s
    Stream #0.0: Audio: wmav2, 44100 Hz, stereo, s16, 64 kb/s
    Stream #0.0: Audio: wmav2, 44100 Hz, stereo, s16, 64 kb/s
    Stream #0.0: Audio: wmav2, 44100 Hz, stereo, s16, 64 kb/s
    Stream #0.0: Audio: wmav2, 44100 Hz, stereo, s16, 64 kb/s
    Stream #0.1: Audio: mp3, 22050 Hz, stereo, s16, 32 kb/s
    Stream #0.1: Audio: mp3, 22050 Hz, stereo, s16, 32 kb/s
    Stream #0.1: Audio: mp3, 22050 Hz, stereo, s16, 32 kb/s
    Stream #0.1: Audio: mp3, 22050 Hz, stereo, s16, 32 kb/s
    Stream #0.1: Audio: mp3, 22050 Hz, stereo, s16, 32 kb/s
    Stream #0.1: Audio: mp3, 22050 Hz, stereo, s16, 32 kb/s
    Stream #0.1: Audio: mp3, 22050 Hz, stereo, s16, 32 kb/s
    Stream #0.1: Audio: mp3, 22050 Hz, stereo, s16, 32 kb/s
    Stream #0.1: Audio: mp3, 22050 Hz, stereo, s16, 32 kb/s
    Stream #0.1[0x1c0]: Audio: mp2, 44100 Hz, stereo, s16, 256 kb/s
    Stream #0.0: Audio: wmav2, 44100 Hz, stereo, s16, 64 kb/s
    Stream #0.1: Audio: mp3, 22050 Hz, stereo, s16, 32 kb/s
    Stream #0.1: Audio: mp3, 22050 Hz, stereo, s16, 32 kb/s
    Stream #0.1: Audio: mp3, 22050 Hz, stereo, s16, 32 kb/s
    Stream #0.1: Audio: mp3, 11025 Hz, mono, s16, 8 kb/s
    Stream #0.1: Audio: mp3, 22050 Hz, stereo, s16, 32 kb/s
    Stream #0.1: Audio: mp3, 22050 Hz, stereo, s16, 32 kb/s
    Stream #0.1: Audio: mp3, 22050 Hz, stereo, s16, 32 kb/s
    Stream #0.1: Audio: mp3, 22050 Hz, stereo, s16, 32 kb/s
    Stream #0.1: Audio: mp3, 22050 Hz, stereo, s16, 32 kb/s
    Stream #0.1: Audio: mp3, 22050 Hz, stereo, s16, 32 kb/s
    Stream #0.1: Audio: mp3, 22050 Hz, stereo, s16, 32 kb/s
    Stream #0.1: Audio: mp3, 22050 Hz, stereo, s16, 32 kb/s
    Stream #0.1: Audio: mp3, 44100 Hz, stereo, s16, 192 kb/s
    Stream #0.0: Audio: wmav2, 44100 Hz, stereo, s16, 64 kb/s
    Stream #0.0: Audio: wmav2, 44100 Hz, stereo, s16, 64 kb/s
    Stream #0.1: Audio: mp3, 22050 Hz, stereo, s16, 32 kb/s
    Stream #0.0: Audio: wmav2, 32000 Hz, stereo, s16, 40 kb/s
    Stream #0.0: Audio: wmav2, 44100 Hz, stereo, s16, 64 kb/s
    Stream #0.0: Audio: wmav2, 44100 Hz, stereo, s16, 64 kb/s
    Stream #0.0: Audio: wmav2, 22050 Hz, stereo, s16, 32 kb/s
    Stream #0.1: Audio: mp3, 22050 Hz, stereo, s16, 32 kb/s
    Stream #0.0: Audio: wmav2, 44100 Hz, stereo, s16, 64 kb/s
    Stream #0.1: Audio: mp3, 22050 Hz, stereo, s16, 32 kb/s
    Stream #0.1: Audio: mp3, 48000 Hz, mono, s16, 64 kb/s
    Stream #0.1: Audio: mp3, 22050 Hz, stereo, s16, 32 kb/s
    Stream #0.1[0x1c0]: Audio: mp2, 48000 Hz, stereo, s16, 64 kb/s
    Stream #0.1[0x1c0]: Audio: mp2, 44100 Hz, stereo, s16, 64 kb/s
    Stream #0.0: Audio: wmav2, 32000 Hz, stereo, s16, 40 kb/s
    Stream #0.1: Audio: mp3, 48000 Hz, stereo, s16, 112 kb/s
    Stream #0.1: Audio: mp3, 48000 Hz, stereo, s16, 96 kb/s
    Stream #0.0(eng): Audio: aac, 44100 Hz, stereo, s16
    Stream #0.1: Audio: mp3, 48000 Hz, stereo, s16, 112 kb/s
    Stream #0.1: Audio: mp3, 48000 Hz, stereo, s16, 32 kb/s
    Stream #0.1: Audio: mp3, 48000 Hz, stereo, s16, 128 kb/s
    Stream #0.0: Audio: wmav2, 44100 Hz, stereo, s16, 64 kb/s
    Stream #0.1: Audio: mp3, 48000 Hz, stereo, s16, 160 kb/s
    Stream #0.0: Audio: wmav2, 44100 Hz, stereo, s16, 96 kb/s
    Stream #0.1: Audio: mp3, 48000 Hz, stereo, s16, 128 kb/s
    Stream #0.1: Audio: mp3, 48000 Hz, stereo, s16, 160 kb/s
    Stream #0.0: Audio: wmav2, 22050 Hz, stereo, s16, 32 kb/s
    Stream #0.0: Audio: wmav2, 44100 Hz, stereo, s16, 48 kb/s
    Stream #0.0: Audio: wmav2, 44100 Hz, mono, s16, 32 kb/s
    Stream #0.0: Audio: wmav2, 44100 Hz, mono, s16, 32 kb/s
    Stream #0.0: Audio: wmav2, 44100 Hz, mono, s16, 32 kb/s
    Stream #0.0: Audio: wmav2, 44100 Hz, mono, s16, 32 kb/s
    Stream #0.0: Audio: wmav2, 44100 Hz, mono, s16, 32 kb/s
    Stream #0.0: Audio: wmav2, 44100 Hz, mono, s16, 32 kb/s
    Stream #0.0: Audio: wmav2, 44100 Hz, mono, s16, 32 kb/s
    Stream #0.0: Audio: wmav2, 44100 Hz, mono, s16, 32 kb/s
    Stream #0.0: Audio: wmav2, 44100 Hz, mono, s16, 32 kb/s
    Stream #0.0: Audio: wmav2, 44100 Hz, mono, s16, 32 kb/s
    Stream #0.0: Audio: wmav2, 44100 Hz, mono, s16, 32 kb/s
    Stream #0.0: Audio: wmav2, 44100 Hz, stereo, s16, 96 kb/s
    Stream #0.0: Audio: wmav2, 44100 Hz, stereo, s16, 96 kb/s
    Stream #0.0: Audio: wmav2, 44100 Hz, stereo, s16, 96 kb/s
    Stream #0.0: Audio: wmav2, 44100 Hz, mono, s16, 32 kb/s
    Stream #0.0: Audio: wmav2, 44100 Hz, mono, s16, 32 kb/s
    Stream #0.0: Audio: wmav2, 44100 Hz, mono, s16, 32 kb/s
    Stream #0.0: Audio: wmav2, 44100 Hz, stereo, s16, 96 kb/s
    Stream #0.0: Audio: wmav2, 44100 Hz, mono, s16, 32 kb/s
    Stream #0.0: Audio: wmav2, 44100 Hz, mono, s16, 32 kb/s
    Stream #0.0: Audio: wmav2, 44100 Hz, mono, s16, 32 kb/s
    Stream #0.0: Audio: wmav2, 44100 Hz, mono, s16, 32 kb/s
    Stream #0.0: Audio: wmav2, 44100 Hz, mono, s16, 32 kb/s
    Stream #0.0: Audio: wmav2, 44100 Hz, mono, s16, 32 kb/s
    Stream #0.0: Audio: wmav2, 44100 Hz, stereo, s16, 96 kb/s
    Stream #0.0: Audio: wmav2, 44100 Hz, mono, s16, 32 kb/s
    Stream #0.0: Audio: wmav2, 44100 Hz, mono, s16, 32 kb/s
    Stream #0.0: Audio: wmav2, 44100 Hz, mono, s16, 32 kb/s
    Stream #0.0: Audio: wmav2, 44100 Hz, stereo, s16, 64 kb/s
    Stream #0.0: Audio: wmav2, 44100 Hz, mono, s16, 32 kb/s
    Stream #0.0: Audio: wmav2, 48000 Hz, stereo, s16, 128 kb/s
    Stream #0.1: Audio: mp3, 44100 Hz, stereo, s16, 128 kb/s
    Stream #0.1: Audio: mp3, 22050 Hz, stereo, s16, 32 kb/s
    Stream #0.1: Audio: mp3, 22050 Hz, stereo, s16, 32 kb/s
    Stream #0.0: Audio: wmav2, 44100 Hz, stereo, s16, 64 kb/s
    Stream #0.1: Audio: mp3, 22050 Hz, stereo, s16, 32 kb/s
    Stream #0.0: Audio: wmav2, 44100 Hz, stereo, s16, 64 kb/s
    Stream #0.1: Audio: mp3, 22050 Hz, stereo, s16, 32 kb/s
    Stream #0.0: Audio: wmav2, 44100 Hz, stereo, s16, 64 kb/s
    Stream #0.0: Audio: wmav2, 44100 Hz, stereo, s16, 64 kb/s
    Stream #0.0: Audio: wmav2, 44100 Hz, stereo, s16, 64 kb/s
    Stream #0.1: Audio: mp3, 22050 Hz, stereo, s16, 32 kb/s
    Stream #0.0: Audio: wmav2, 44100 Hz, stereo, s16, 64 kb/s
    Stream #0.0: Audio: wmav2, 44100 Hz, stereo, s16, 64 kb/s
    Stream #0.1: Audio: mp3, 22050 Hz, mono, s16, 32 kb/s
    Stream #0.1: Audio: mp3, 22050 Hz, stereo, s16, 32 kb/s
    Stream #0.1[0x1c0]: Audio: mp2, 44100 Hz, stereo, s16, 96 kb/s
    Stream #0.0: Audio: wmav2, 44100 Hz, stereo, s16, 64 kb/s
    Stream #0.0: Audio: wmav2, 44100 Hz, stereo, s16, 174 kb/s
    Stream #0.1: Audio: mp3, 22050 Hz, stereo, s16, 32 kb/s
    Stream #0.0: Audio: wmav2, 44100 Hz, mono, s16, 32 kb/s
    Stream #0.1: Audio: mp3, 22050 Hz, stereo, s16, 32 kb/s
    Stream #0.0: Audio: wmav2, 44100 Hz, stereo, s16, 64 kb/s
    Stream #0.1: Audio: mp3, 22050 Hz, stereo, s16, 32 kb/s
    Stream #0.1: Audio: mp3, 22050 Hz, stereo, s16, 32 kb/s
    Stream #0.0: Audio: wmav2, 44100 Hz, stereo, s16, 88 kb/s
    Stream #0.0: Audio: wmav2, 44100 Hz, stereo, s16, 64 kb/s
    Stream #0.1: Audio: mp3, 22050 Hz, stereo, s16, 32 kb/s
    Stream #0.1: Audio: mp3, 22050 Hz, stereo, s16, 32 kb/s
    Stream #0.0: Audio: wmav2, 22050 Hz, stereo, s16, 32 kb/s
    Stream #0.1: Audio: mp3, 22050 Hz, stereo, s16, 32 kb/s
    Stream #0.1: Audio: mp3, 22050 Hz, stereo, s16, 32 kb/s
    Stream #0.1: Audio: mp3, 22050 Hz, stereo, s16, 32 kb/s
    Stream #0.0: Audio: wmav2, 44100 Hz, stereo, s16, 64 kb/s
    Stream #0.0: Audio: wmav2, 44100 Hz, stereo, s16, 64 kb/s
    Stream #0.1: Audio: mp3, 22050 Hz, stereo, s16, 32 kb/s
    Stream #0.1: Audio: mp3, 22050 Hz, stereo, s16, 32 kb/s
    Stream #0.1[0x1c0]: Audio: mp2, 44100 Hz, stereo, s16, 224 kb/s
    Stream #0.1: Audio: mp3, 22050 Hz, stereo, s16, 32 kb/s
    Stream #0.1: Audio: mp3, 22050 Hz, stereo, s16, 32 kb/s
    Stream #0.1: Audio: mp3, 22050 Hz, stereo, s16, 32 kb/s
    Stream #0.0: Audio: wmav2, 22050 Hz, stereo, s16, 32 kb/s
    Stream #0.0: Audio: wmav2, 44100 Hz, stereo, s16, 64 kb/s
    Stream #0.0: Audio: wmav2, 44100 Hz, stereo, s16, 64 kb/s
    Stream #0.1: Audio: mp3, 22050 Hz, stereo, s16, 32 kb/s
    Stream #0.1: Audio: mp3, 22050 Hz, stereo, s16, 32 kb/s
    Stream #0.0: Audio: wmav2, 44100 Hz, stereo, s16, 64 kb/s
    Stream #0.0: Audio: wmav2, 44100 Hz, stereo, s16, 64 kb/s
    Stream #0.0: Audio: wmav2, 32000 Hz, stereo, s16, 32 kb/s
    Stream #0.1: Audio: mp3, 22050 Hz, stereo, s16, 32 kb/s
    Stream #0.1: Audio: mp3, 22050 Hz, stereo, s16, 32 kb/s
    Stream #0.1: Audio: mp3, 22050 Hz, stereo, s16, 32 kb/s
    Stream #0.0: Audio: wmav2, 44100 Hz, stereo, s16, 64 kb/s
    Stream #0.1: Audio: mp3, 22050 Hz, stereo, s16, 32 kb/s
    Stream #0.0: Audio: wmav2, 32000 Hz, stereo, s16, 40 kb/s
    Stream #0.0: Audio: wmav2, 44100 Hz, stereo, s16, 64 kb/s
    Stream #0.0: Audio: wmav2, 44100 Hz, stereo, s16, 64 kb/s
    Stream #0.1: Audio: mp3, 22050 Hz, stereo, s16, 32 kb/s
    Stream #0.0: Audio: wmav2, 44100 Hz, stereo, s16, 64 kb/s
    Stream #0.0: Audio: wmav2, 44100 Hz, stereo, s16, 64 kb/s
    Stream #0.1: Audio: mp3, 22050 Hz, stereo, s16, 32 kb/s
    Stream #0.1: Audio: mp3, 22050 Hz, stereo, s16, 32 kb/s
    Stream #0.0: Audio: wmav2, 44100 Hz, stereo, s16, 64 kb/s
    Stream #0.1: Audio: mp3, 22050 Hz, stereo, s16, 32 kb/s
    Stream #0.1[0x1c0]: Audio: mp2, 44100 Hz, stereo, s16, 224 kb/s
    Stream #0.0: Audio: wmav2, 44100 Hz, stereo, s16, 64 kb/s
    Stream #0.1: Audio: mp3, 22050 Hz, stereo, s16, 32 kb/s
    Stream #0.0: Audio: wmav2, 44100 Hz, stereo, s16, 64 kb/s
    Stream #0.0: Audio: wmav2, 44100 Hz, stereo, s16, 64 kb/s
    Stream #0.1: Audio: mp3, 22050 Hz, stereo, s16, 32 kb/s
    Stream #0.1: Audio: mp3, 22050 Hz, stereo, s16, 32 kb/s
    Stream #0.0: Audio: wmav2, 44100 Hz, stereo, s16, 64 kb/s
    Stream #0.0: Audio: wmav2, 44100 Hz, stereo, s16, 64 kb/s
    Stream #0.1: Audio: mp3, 22050 Hz, stereo, s16, 32 kb/s
    Stream #0.0: Audio: wmav2, 44100 Hz, stereo, s16, 64 kb/s
    Stream #0.0: Audio: wmav2, 44100 Hz, stereo, s16, 64 kb/s
    Stream #0.0: Audio: wmav2, 44100 Hz, stereo, s16, 64 kb/s
    Stream #0.1: Audio: mp3, 22050 Hz, stereo, s16, 32 kb/s
    Stream #0.0: Audio: wmav2, 44100 Hz, stereo, s16, 64 kb/s
    Stream #0.1: Audio: mp3, 22050 Hz, stereo, s16, 32 kb/s
    Stream #0.1: Audio: mp3, 22050 Hz, stereo, s16, 32 kb/s
    Stream #0.1: Audio: mp3, 22050 Hz, stereo, s16, 32 kb/s
    Stream #0.1: Audio: mp3, 22050 Hz, stereo, s16, 32 kb/s
    Stream #0.0: Audio: wmav2, 44100 Hz, stereo, s16, 64 kb/s
    Stream #0.0: Audio: wmav2, 44100 Hz, stereo, s16, 64 kb/s
    Stream #0.0: Audio: wmav2, 44100 Hz, stereo, s16, 64 kb/s
    Stream #0.1: Audio: mp3, 22050 Hz, stereo, s16, 32 kb/s
    Stream #0.0: Audio: wmav2, 48000 Hz, stereo, s16, 128 kb/s
    Stream #0.0: Audio: wmav2, 48000 Hz, stereo, s16, 128 kb/s
    Stream #0.0: Audio: wmav2, 48000 Hz, stereo, s16, 128 kb/s
    Stream #0.0: Audio: wmav2, 48000 Hz, stereo, s16, 128 kb/s
    Stream #0.0: Audio: wmav2, 48000 Hz, stereo, s16, 128 kb/s
    Stream #0.0: Audio: wmav2, 48000 Hz, stereo, s16, 128 kb/s
    Stream #0.0: Audio: wmav2, 48000 Hz, stereo, s16, 128 kb/s
    Stream #0.0: Audio: wmav2, 48000 Hz, stereo, s16, 128 kb/s
    Stream #0.0: Audio: wmav2, 48000 Hz, stereo, s16, 128 kb/s
    Stream #0.0: Audio: wmav2, 48000 Hz, stereo, s16, 128 kb/s
    Stream #0.0: Audio: wmav2, 44100 Hz, stereo, s16, 64 kb/s
    Stream #0.0: Audio: wmav2, 44100 Hz, stereo, s16, 64 kb/s
    Stream #0.0: Audio: wmav2, 32000 Hz, mono, s16, 32 kb/s
    Stream #0.1: Audio: mp3, 22050 Hz, stereo, s16, 32 kb/s
    Stream #0.1: Audio: mp3, 22050 Hz, stereo, s16, 32 kb/s
    Stream #0.1: Audio: mp3, 48000 Hz, stereo, s16, 32 kb/s
    Stream #0.1: Audio: mp3, 48000 Hz, stereo, s16, 112 kb/s
    Stream #0.1: Audio: mp3, 48000 Hz, stereo, s16, 32 kb/s
    Stream #0.1: Audio: mp3, 22050 Hz, stereo, s16, 32 kb/s
    Stream #0.1: Audio: mp3, 22050 Hz, stereo, s16, 32 kb/s
    Stream #0.1: Audio: mp3, 22050 Hz, stereo, s16, 32 kb/s
    Stream #0.1: Audio: mp3, 22050 Hz, stereo, s16, 32 kb/s
    Stream #0.1(eng): Audio: aac, 44100 Hz, stereo, s16
    Stream #0.1: Audio: mp3, 22050 Hz, stereo, s16, 32 kb/s
    Stream #0.0: Audio: wmav2, 44100 Hz, stereo, s16, 64 kb/s
    Stream #0.1: Audio: mp3, 22050 Hz, stereo, s16, 32 kb/s
    Stream #0.0: Audio: wmav2, 48000 Hz, stereo, s16, 96 kb/s
    Stream #0.1: Audio: mp3, 22050 Hz, stereo, s16, 32 kb/s
    Stream #0.1: Audio: mp3, 48000 Hz, stereo, s16, 32 kb/s
    Stream #0.1: Audio: mp3, 48000 Hz, stereo, s16, 32 kb/s
    Stream #0.1: Audio: mp3, 48000 Hz, stereo, s16, 128 kb/s
    Stream #0.1: Audio: mp3, 48000 Hz, stereo, s16, 32 kb/s
    Stream #0.1: Audio: mp3, 48000 Hz, stereo, s16, 96 kb/s
    Stream #0.1: Audio: mp3, 48000 Hz, stereo, s16, 128 kb/s
    Stream #0.1: Audio: mp3, 22050 Hz, stereo, s16, 32 kb/s
    Stream #0.1: Audio: mp3, 22050 Hz, stereo, s16, 32 kb/s
    Stream #0.1: Audio: mp3, 22050 Hz, stereo, s16, 32 kb/s
    Stream #0.0: Audio: wmav2, 44100 Hz, stereo, s16, 64 kb/s
    Stream #0.0: Audio: wmav2, 44100 Hz, stereo, s16, 64 kb/s
    Stream #0.0: Audio: wmav2, 44100 Hz, stereo, s16, 64 kb/s
    Stream #0.0: Audio: wmav2, 44100 Hz, stereo, s16, 64 kb/s
    Stream #0.0: Audio: wmav2, 44100 Hz, stereo, s16, 64 kb/s
    Stream #0.0: Audio: wmav2, 44100 Hz, stereo, s16, 64 kb/s
    Stream #0.0: Audio: wmav2, 44100 Hz, stereo, s16, 64 kb/s
    Stream #0.0: Audio: wmav2, 44100 Hz, stereo, s16, 64 kb/s
    Stream #0.0: Audio: wmav2, 44100 Hz, stereo, s16, 64 kb/s
    Stream #0.1: Audio: mp3, 22050 Hz, stereo, s16, 32 kb/s
    Stream #0.0: Audio: wmav2, 44100 Hz, stereo, s16, 64 kb/s
    Stream #0.1: Audio: mp3, 22050 Hz, stereo, s16, 32 kb/s
    Stream #0.0: Audio: wmav2, 44100 Hz, stereo, s16, 64 kb/s
    Stream #0.1: Audio: mp3, 22050 Hz, stereo, s16, 32 kb/s
    Stream #0.1: Audio: mp3, 22050 Hz, stereo, s16, 32 kb/s
    Stream #0.1: Audio: mp3, 22050 Hz, stereo, s16, 32 kb/s
    Stream #0.0: Audio: wmav2, 44100 Hz, stereo, s16, 64 kb/s
    Stream #0.1: Audio: mp3, 22050 Hz, stereo, s16, 32 kb/s
    Stream #0.0: Audio: wmav2, 44100 Hz, stereo, s16, 64 kb/s
    Stream #0.1: Audio: mp3, 22050 Hz, stereo, s16, 32 kb/s
    Stream #0.1: Audio: mp3, 22050 Hz, stereo, s16, 32 kb/s
    Stream #0.0: Audio: wmav2, 44100 Hz, stereo, s16, 64 kb/s
    Stream #0.0: Audio: wmav2, 44100 Hz, stereo, s16, 64 kb/s
    Stream #0.1: Audio: mp3, 22050 Hz, stereo, s16, 32 kb/s
    Stream #0.1: Audio: mp3, 22050 Hz, stereo, s16, 32 kb/s
    Stream #0.1[0x1c0]: Audio: mp2, 32000 Hz, stereo, s16, 128 kb/s
    Stream #0.1: Audio: mp3, 22050 Hz, stereo, s16, 32 kb/s
    Stream #0.1: Audio: pcm_u8, 16000 Hz, mono, s16, 128 kb/s
    Stream #0.0: Audio: wmav2, 44100 Hz, stereo, s16, 64 kb/s
    Stream #0.1: Audio: mp3, 22050 Hz, stereo, s16, 32 kb/s
    Stream #0.1: Audio: mp3, 48000 Hz, stereo, s16, 32 kb/s
    Stream #0.1: Audio: mp3, 48000 Hz, stereo, s16, 128 kb/s
    Stream #0.1: Audio: mp3, 48000 Hz, stereo, s16, 32 kb/s
    Stream #0.1: Audio: mp3, 48000 Hz, stereo, s16, 128 kb/s
    Stream #0.1: Audio: mp3, 48000 Hz, stereo, s16, 112 kb/s
    Stream #0.1: Audio: mp3, 48000 Hz, stereo, s16, 96 kb/s
    Stream #0.1: Audio: mp3, 48000 Hz, stereo, s16, 128 kb/s
    Stream #0.1: Audio: mp3, 48000 Hz, stereo, s16, 112 kb/s
    Stream #0.1: Audio: mp3, 48000 Hz, stereo, s16, 112 kb/s
    Stream #0.1: Audio: mp3, 48000 Hz, stereo, s16, 192 kb/s
    Stream #0.1: Audio: mp3, 48000 Hz, stereo, s16, 128 kb/s
    Stream #0.1: Audio: mp3, 48000 Hz, stereo, s16, 128 kb/s
    Stream #0.1: Audio: mp3, 44100 Hz, stereo, s16, 64 kb/s
    Stream #0.1: Audio: mp3, 44100 Hz, stereo, s16, 64 kb/s
    Stream #0.1: Audio: mp3, 22050 Hz, stereo, s16, 32 kb/s
    Stream #0.1: Audio: mp3, 22050 Hz, stereo, s16, 32 kb/s
    Stream #0.1: Audio: mp3, 22050 Hz, stereo, s16, 32 kb/s
    Stream #0.1: Audio: mp3, 48000 Hz, stereo, s16, 128 kb/s
    Stream #0.1: Audio: mp3, 22050 Hz, stereo, s16, 32 kb/s
    Stream #0.0: Audio: wmav2, 44100 Hz, stereo, s16, 100 kb/s
    Stream #0.1: Audio: mp3, 22050 Hz, stereo, s16, 32 kb/s
    Stream #0.1: Audio: mp3, 24000 Hz, stereo, s16, 56 kb/s
    Stream #0.1: Audio: mp3, 22050 Hz, stereo, s16, 32 kb/s
    Stream #0.1(eng): Audio: adpcm_ima_qt, 44100 Hz, mono, s16
    Stream #0.0: Audio: wmav2, 44100 Hz, stereo, s16, 64 kb/s
    Stream #0.1: Audio: mp3, 22050 Hz, stereo, s16, 32 kb/s
    Stream #0.1: Audio: mp3, 22050 Hz, stereo, s16, 32 kb/s
    Stream #0.1: Audio: mp3, 22050 Hz, stereo, s16, 32 kb/s
    Stream #0.0: Audio: wmav2, 44100 Hz, stereo, s16, 48 kb/s
    Stream #0.1: Audio: mp3, 8000 Hz, stereo, s16, 18 kb/s
    Stream #0.1: Audio: mp3, 22050 Hz, stereo, s16, 32 kb/s
    Stream #0.1[0x1c0]: Audio: mp2, 44100 Hz, stereo, s16, 96 kb/s
    Stream #0.1: Audio: mp3, 22050 Hz, stereo, s16, 32 kb/s
    Stream #0.1[0x1c0]: Audio: mp2, 44100 Hz, stereo, s16, 192 kb/s
    Stream #0.0: Audio: wmav2, 44100 Hz, stereo, s16, 160 kb/s
    Stream #0.1: Audio: mp3, 22050 Hz, stereo, s16, 32 kb/s
    Stream #0.1: Audio: mp3, 22050 Hz, stereo, s16, 32 kb/s
    Stream #0.1: Audio: mp3, 24000 Hz, stereo, s16, 56 kb/s
    Stream #0.1: Audio: mp3, 22050 Hz, stereo, s16, 32 kb/s
    Stream #0.1: Audio: mp3, 22050 Hz, stereo, s16, 32 kb/s
    Stream #0.1: Audio: mp3, 22050 Hz, stereo, s16, 32 kb/s
    Stream #0.0: Audio: wmav2, 44100 Hz, stereo, s16, 64 kb/s
    Stream #0.1: Audio: mp3, 22050 Hz, stereo, s16, 32 kb/s
    Stream #0.1: Audio: mp3, 22050 Hz, stereo, s16, 32 kb/s
    Stream #0.1: Audio: mp3, 22050 Hz, stereo, s16, 32 kb/s
    Stream #0.1: Audio: mp3, 32000 Hz, stereo, s16, 96 kb/s
    Stream #0.1: Audio: mp3, 22050 Hz, stereo, s16, 32 kb/s
    Stream #0.1: Audio: mp3, 22050 Hz, stereo, s16, 32 kb/s
    Stream #0.1: Audio: mp3, 8000 Hz, stereo, s16, 16 kb/s
    Stream #0.1: Audio: mp3, 48000 Hz, stereo, s16, 192 kb/s
    Stream #0.1: Audio: mp3, 48000 Hz, stereo, s16, 32 kb/s
    Stream #0.1: Audio: mp3, 48000 Hz, stereo, s16, 112 kb/s
    Stream #0.1: Audio: mp3, 48000 Hz, stereo, s16, 32 kb/s
    Stream #0.1: Audio: mp3, 48000 Hz, stereo, s16, 32 kb/s
    Stream #0.1: Audio: ac3, 48000 Hz, stereo, s16, 224 kb/s
    Stream #0.1: Audio: mp3, 48000 Hz, stereo, s16, 128 kb/s
    Stream #0.1: Audio: mp3, 48000 Hz, stereo, s16, 128 kb/s
    Stream #0.1: Audio: mp3, 48000 Hz, stereo, s16, 160 kb/s
    Stream #0.1: Audio: mp3, 48000 Hz, stereo, s16, 160 kb/s
    Stream #0.0: Audio: wmav2, 44100 Hz, stereo, s16, 64 kb/s
    Stream #0.1: Audio: mp3, 22050 Hz, stereo, s16, 32 kb/s
    Stream #0.1: Audio: mp3, 22050 Hz, stereo, s16, 32 kb/s
    Stream #0.1[0x1c0]: Audio: mp2, 44100 Hz, mono, s16, 64 kb/s
    Stream #0.1: Audio: mp3, 22050 Hz, stereo, s16, 32 kb/s
    Stream #0.1: Audio: mp3, 22050 Hz, stereo, s16, 32 kb/s
    Stream #0.1: Audio: mp3, 22050 Hz, stereo, s16, 32 kb/s
    Stream #0.0: Audio: wmav2, 44100 Hz, stereo, s16, 160 kb/s
    Stream #0.1[0x1c0]: Audio: mp2, 48000 Hz, stereo, s16, 96 kb/s
    Stream #0.1: Audio: mp3, 22050 Hz, stereo, s16, 32 kb/s
    Stream #0.1: Audio: mp3, 22050 Hz, stereo, s16, 32 kb/s
    Stream #0.0: Audio: wmav2, 44100 Hz, stereo, s16, 64 kb/s
    Stream #0.1: Audio: mp3, 22050 Hz, stereo, s16, 32 kb/s
    Stream #0.1: Audio: mp3, 22050 Hz, stereo, s16, 32 kb/s
    Stream #0.1: Audio: mp3, 22050 Hz, stereo, s16, 32 kb/s
    Stream #0.1: Audio: mp3, 44100 Hz, mono, s16, 96 kb/s
    Stream #0.1: Audio: mp3, 22050 Hz, stereo, s16, 32 kb/s
    Stream #0.0: Audio: wmav2, 32000 Hz, stereo, s16, 32 kb/s
    Stream #0.1: Audio: wmav2, 44100 Hz, stereo, s16, 96 kb/s
    Stream #0.1: Audio: mp3, 22050 Hz, stereo, s16, 32 kb/s
    Stream #0.1: Audio: mp3, 22050 Hz, stereo, s16, 32 kb/s
    Stream #0.1: Audio: mp3, 22050 Hz, mono, s16, 32 kb/s
    Stream #0.1: Audio: mp3, 22050 Hz, stereo, s16, 32 kb/s
    Stream #0.1: Audio: mp3, 48000 Hz, stereo, s16, 32 kb/s
    Stream #0.1: Audio: wmav2, 44100 Hz, stereo, s16, 96 kb/s
    Stream #0.1: Audio: mp3, 48000 Hz, stereo, s16, 64 kb/s
    Stream #0.1: Audio: mp3, 22050 Hz, mono, s16, 56 kb/s
    Stream #0.1: Audio: mp3, 22050 Hz, stereo, s16, 32 kb/s
    Stream #0.1: Audio: mp3, 22050 Hz, stereo, s16, 32 kb/s
    Stream #0.1: Audio: mp3, 22050 Hz, stereo, s16, 32 kb/s
    Stream #0.1: Audio: mp3, 22050 Hz, stereo, s16, 32 kb/s
    Stream #0.1: Audio: mp3, 22050 Hz, stereo, s16, 32 kb/s
    Stream #0.1: Audio: mp3, 22050 Hz, stereo, s16, 32 kb/s
    Stream #0.1: Audio: mp3, 22050 Hz, stereo, s16, 32 kb/s
    Stream #0.1: Audio: mp3, 22050 Hz, stereo, s16, 32 kb/s
    Stream #0.1: Audio: mp3, 22050 Hz, stereo, s16, 32 kb/s
    Stream #0.1: Audio: mp3, 22050 Hz, stereo, s16, 32 kb/s
    Stream #0.1: Audio: mp3, 22050 Hz, stereo, s16, 32 kb/s
    Stream #0.1: Audio: mp3, 22050 Hz, stereo, s16, 32 kb/s
    Stream #0.0: Audio: wmav2, 44100 Hz, stereo, s16, 96 kb/s
    Stream #0.1: Audio: mp3, 48000 Hz, stereo, s16, 32 kb/s
    Stream #0.1[0x1c0]: Audio: mp2, 44100 Hz, stereo, s16, 224 kb/s
    Stream #0.1: Audio: mp3, 48000 Hz, stereo, s16, 112 kb/s
    Stream #0.1: Audio: mp3, 48000 Hz, stereo, s16, 112 kb/s
    Stream #0.1: Audio: mp3, 48000 Hz, stereo, s16, 80 kb/s
    Stream #0.1: Audio: mp3, 22050 Hz, stereo, s16, 32 kb/s
    Stream #0.1: Audio: mp3, 48000 Hz, stereo, s16, 224 kb/s
    Stream #0.1: Audio: mp3, 48000 Hz, stereo, s16, 128 kb/s
    Stream #0.1: Audio: mp3, 22050 Hz, stereo, s16, 32 kb/s
    Stream #0.0: Audio: wmav2, 44100 Hz, stereo, s16, 88 kb/s
    Stream #0.1: Audio: mp3, 22050 Hz, mono, s16, 56 kb/s
    Stream #0.1: Audio: mp3, 22050 Hz, stereo, s16, 32 kb/s
    Stream #0.1: Audio: mp3, 22050 Hz, stereo, s16, 32 kb/s
